<?xml version="1.0" encoding="utf-8"?>
<!-- Generator: Adobe Illustrator 28.2.0, SVG Export Plug-In . SVG Version: 6.00 Build 0)  -->
<svg version="1.1" id="Capa_1" xmlns="http://www.w3.org/2000/svg" xmlns:xlink="http://www.w3.org/1999/xlink" x="0px" y="0px"
	 viewBox="0 0 1920 1080" style="enable-background:new 0 0 1920 1080;" xml:space="preserve">
<style type="text/css">
	.st0{fill:#262626;}
	.st1{fill:#F2F2ED;}
	.st2{fill:#82867F;}
	.st3{fill:#FFFFFF;}
</style>
<g>
	<g>
		<g>
			<path class="st0" d="M743.13,687.38h1.4l5.06,10.87l5.06-10.87h1.4v13.56h-1.72v-9.15l-4.2,9.15h-1.08l-4.2-9.15v9.15h-1.72
				V687.38z"/>
			<path class="st0" d="M759.49,687.38h8.61v1.51h-6.89v4.31h6.35v1.51h-6.35v4.74h7.1v1.51h-8.83V687.38z"/>
			<path class="st0" d="M771.11,687.38h3.77c3.55,0,6.46,2.91,6.46,6.78s-2.91,6.78-6.46,6.78h-3.77V687.38z M774.88,699.44
				c2.5,0,4.74-2.26,4.74-5.27c0-3.01-2.24-5.27-4.74-5.27h-2.05v10.55H774.88z"/>
			<path class="st0" d="M783.92,687.38h1.72v13.56h-1.72V687.38z"/>
			<path class="st0" d="M800.29,696.42c-0.75,2.58-2.8,4.63-5.81,4.63c-3.34,0-6.35-3.01-6.35-6.89s3.01-6.89,6.35-6.89
				c2.91,0,4.95,2.04,5.71,4.63h-1.83c-0.45-1.72-1.81-3.12-3.88-3.12c-2.37,0-4.63,2.26-4.63,5.38s2.26,5.38,4.63,5.38
				c2.17,0,3.53-1.4,3.98-3.12H800.29z"/>
			<path class="st0" d="M802.65,687.38h1.72v13.56h-1.72V687.38z"/>
			<path class="st0" d="M807.82,687.38h1.51l6.78,10.23v-10.23h1.72v13.56h-1.51l-6.78-10.23v10.23h-1.72V687.38z"/>
			<path class="st0" d="M824.72,687.38h1.51l5.17,13.56h-1.83l-1.29-3.34h-5.6l-1.29,3.34h-1.83L824.72,687.38z M827.74,696.1
				l-2.26-5.92l-2.26,5.92H827.74z"/>
			<path class="st0" d="M844.1,687.38h1.51l5.17,13.56h-1.83l-1.29-3.34h-5.6l-1.29,3.34h-1.83L844.1,687.38z M847.11,696.1
				l-2.26-5.92l-2.26,5.92H847.11z"/>
			<path class="st0" d="M852.49,687.38H854l6.78,10.23v-10.23h1.72v13.56H861l-6.78-10.23v10.23h-1.72V687.38z"/>
			<path class="st0" d="M868.64,688.89h-4.09v-1.51h9.9v1.51h-4.09v12.06h-1.72V688.89z"/>
			<path class="st0" d="M876.5,687.38h1.72v13.56h-1.72V687.38z"/>
			<path class="st0" d="M881.67,687.38h8.61v1.51h-6.89v4.31h6.35v1.51h-6.35v4.74h7.1v1.51h-8.83V687.38z"/>
			<path class="st0" d="M893.29,687.38h1.51l6.78,10.23v-10.23h1.72v13.56h-1.51l-6.78-10.23v10.23h-1.72V687.38z"/>
			<path class="st0" d="M905.24,687.38h1.83l3.98,11.09l3.98-11.09h1.83l-4.95,13.56h-1.72L905.24,687.38z"/>
			<path class="st0" d="M918.8,687.38h8.61v1.51h-6.89v4.31h6.35v1.51h-6.35v4.74h7.1v1.51h-8.83V687.38z"/>
			<path class="st0" d="M930.65,697.28c0.11,1.29,1.08,2.26,2.37,2.26c1.4,0,2.37-0.97,2.37-2.26v-9.9h1.72v9.9
				c0,2.05-1.72,3.77-4.09,3.77c-2.37,0-4.09-1.72-4.09-3.77H930.65z"/>
			<path class="st0" d="M940.33,687.38h8.61v1.51h-6.89v4.31h6.35v1.51h-6.35v4.74h7.1v1.51h-8.83V687.38z"/>
			<path class="st0" d="M963.15,696.42c-0.75,2.58-2.8,4.63-5.81,4.63c-3.34,0-6.35-3.01-6.35-6.89s3.01-6.89,6.35-6.89
				c2.91,0,4.95,2.04,5.71,4.63h-1.83c-0.45-1.72-1.81-3.12-3.88-3.12c-2.37,0-4.63,2.26-4.63,5.38s2.26,5.38,4.63,5.38
				c2.17,0,3.53-1.4,3.98-3.12H963.15z"/>
			<path class="st0" d="M965.52,687.38h1.72v13.56h-1.72V687.38z"/>
			<path class="st0" d="M970.69,687.38h1.4l5.06,10.87l5.06-10.87h1.4v13.56h-1.72v-9.15l-4.2,9.15h-1.08l-4.2-9.15v9.15h-1.72
				V687.38z"/>
			<path class="st0" d="M987.05,687.38h1.72v13.56h-1.72V687.38z"/>
			<path class="st0" d="M992.22,687.38h8.61v1.51h-6.89v4.31h6.35v1.51h-6.35v4.74h7.1v1.51h-8.83V687.38z"/>
			<path class="st0" d="M1003.84,687.38h1.51l6.78,10.23v-10.23h1.72v13.56h-1.51l-6.78-10.23v10.23h-1.72V687.38z"/>
			<path class="st0" d="M1019.99,688.89h-4.09v-1.51h9.9v1.51h-4.09v12.06h-1.72V688.89z"/>
			<path class="st0" d="M1039.15,694.16c0,3.88-3.01,6.89-6.35,6.89c-3.34,0-6.35-3.01-6.35-6.89s3.01-6.89,6.35-6.89
				C1036.14,687.27,1039.15,690.29,1039.15,694.16z M1028.17,694.16c0,3.12,2.26,5.38,4.63,5.38c2.37,0,4.63-2.26,4.63-5.38
				s-2.26-5.38-4.63-5.38C1030.43,688.78,1028.17,691.04,1028.17,694.16z"/>
			<path class="st0" d="M1052.72,699.11c-0.26,0.36-0.58,0.69-0.95,0.97c-0.62,0.5-1.51,0.97-2.71,0.97c-2.15,0-3.55-1.4-3.55-3.23
				c0-1.12,0.58-2.07,1.18-2.73c0.34-0.39,0.73-0.73,1.18-1.03l-0.97-1.08c-0.19-0.19-0.39-0.41-0.54-0.67
				c-0.28-0.43-0.54-1.06-0.54-1.81c0-1.61,1.51-3.12,3.23-3.12s3.12,1.4,3.12,3.12c0,0.75-0.37,1.42-0.71,1.92
				c-0.19,0.28-0.43,0.54-0.69,0.78l-0.95,0.86l2.78,2.8l1.29-2.15h1.83l-2.05,3.23l2.91,3.01h-2.05L1052.72,699.11z
				 M1048.95,695.13c-0.37,0.22-0.67,0.45-0.93,0.73c-0.45,0.5-0.9,1.16-0.9,1.96c0,0.97,0.73,1.83,1.94,1.83
				c0.78,0,1.49-0.34,1.98-0.75c0.28-0.22,0.56-0.47,0.82-0.75L1048.95,695.13z M1048.95,693.09l0.86-0.75
				c0.15-0.15,0.3-0.32,0.43-0.52c0.24-0.32,0.43-0.77,0.43-1.31c0-0.86-0.65-1.61-1.61-1.61s-1.72,0.75-1.72,1.61
				c0,0.49,0.19,0.93,0.43,1.27c0.13,0.19,0.28,0.39,0.43,0.56L1048.95,693.09z"/>
			<path class="st0" d="M1063.16,687.38h1.72v12.06h6.46v1.51h-8.18V687.38z"/>
			<path class="st0" d="M1085.01,694.16c0,3.88-3.01,6.89-6.35,6.89c-3.34,0-6.35-3.01-6.35-6.89s3.01-6.89,6.35-6.89
				C1082,687.27,1085.01,690.29,1085.01,694.16z M1074.03,694.16c0,3.12,2.26,5.38,4.63,5.38c2.37,0,4.63-2.26,4.63-5.38
				s-2.26-5.38-4.63-5.38C1076.29,688.78,1074.03,691.04,1074.03,694.16z"/>
			<path class="st0" d="M1087.49,687.38h1.51l6.78,10.23v-10.23h1.72v13.56h-1.51l-6.78-10.23v10.23h-1.72V687.38z"/>
			<path class="st0" d="M1110.52,699.33c-0.32,0.32-0.67,0.6-1.08,0.86c-0.71,0.43-1.72,0.86-3.01,0.86c-3.34,0-6.35-3.01-6.35-6.89
				s3.01-6.89,6.35-6.89c3.01,0,4.84,1.83,5.71,4.41h-1.83c-0.54-1.72-1.72-2.91-3.87-2.91c-2.37,0-4.63,2.26-4.63,5.38
				s2.26,5.38,4.63,5.38c2.15,0,4.09-1.94,4.09-3.88h-3.98v-1.51h5.71v6.78h-1.29L1110.52,699.33z"/>
			<path class="st0" d="M1115.47,687.38h8.61v1.51h-6.89v4.31h6.35v1.51h-6.35v4.74h7.1v1.51h-8.83V687.38z"/>
			<path class="st0" d="M1125.59,687.38h1.83l3.98,11.09l3.98-11.09h1.83l-4.95,13.56h-1.72L1125.59,687.38z"/>
			<path class="st0" d="M1139.16,687.38h1.72v13.56h-1.72V687.38z"/>
			<path class="st0" d="M1144.32,687.38h3.77c3.55,0,6.46,2.91,6.46,6.78s-2.91,6.78-6.46,6.78h-3.77V687.38z M1148.09,699.44
				c2.5,0,4.74-2.26,4.74-5.27c0-3.01-2.24-5.27-4.74-5.27h-2.05v10.55H1148.09z"/>
			<path class="st0" d="M1160.15,687.38h1.51l5.17,13.56h-1.83l-1.29-3.34h-5.6l-1.29,3.34h-1.83L1160.15,687.38z M1163.16,696.1
				l-2.26-5.92l-2.26,5.92H1163.16z"/>
			<path class="st0" d="M1168.54,687.38h3.77c3.55,0,6.46,2.91,6.46,6.78s-2.91,6.78-6.46,6.78h-3.77V687.38z M1172.31,699.44
				c2.5,0,4.74-2.26,4.74-5.27c0-3.01-2.24-5.27-4.74-5.27h-2.05v10.55H1172.31z"/>
		</g>
		<g>
			<path class="st0" d="M896.34,609.05c-0.32,0.32-0.67,0.6-1.08,0.86c-0.71,0.43-1.72,0.86-3.01,0.86c-3.34,0-6.35-3.01-6.35-6.89
				s3.01-6.89,6.35-6.89c3.01,0,4.84,1.83,5.71,4.41h-1.83c-0.54-1.72-1.72-2.91-3.87-2.91c-2.37,0-4.63,2.26-4.63,5.38
				s2.26,5.38,4.63,5.38c2.15,0,4.09-1.94,4.09-3.88h-3.98v-1.51h5.71v6.78h-1.29L896.34,609.05z"/>
			<path class="st0" d="M901.29,597.1h1.72v13.56h-1.72V597.1z"/>
			<path class="st0" d="M906.46,597.1h1.51l6.78,10.23V597.1h1.72v13.56h-1.51l-6.78-10.23v10.23h-1.72V597.1z"/>
			<path class="st0" d="M919.92,597.1h8.61v1.51h-6.89v4.31h6.35v1.51h-6.35v4.74h7.1v1.51h-8.83V597.1z"/>
			<path class="st0" d="M942.74,606.15c-0.75,2.58-2.8,4.63-5.81,4.63c-3.34,0-6.35-3.01-6.35-6.89s3.01-6.89,6.35-6.89
				c2.91,0,4.95,2.04,5.71,4.63h-1.83c-0.45-1.72-1.81-3.12-3.88-3.12c-2.37,0-4.63,2.26-4.63,5.38s2.26,5.38,4.63,5.38
				c2.17,0,3.53-1.4,3.98-3.12H942.74z"/>
			<path class="st0" d="M956.84,603.89c0,3.88-3.01,6.89-6.35,6.89c-3.34,0-6.35-3.01-6.35-6.89s3.01-6.89,6.35-6.89
				C953.83,597,956.84,600.01,956.84,603.89z M945.86,603.89c0,3.12,2.26,5.38,4.63,5.38c2.37,0,4.63-2.26,4.63-5.38
				s-2.26-5.38-4.63-5.38C948.12,598.5,945.86,600.77,945.86,603.89z"/>
			<path class="st0" d="M959.32,597.1h1.72v12.06h6.46v1.51h-8.18V597.1z"/>
			<path class="st0" d="M980.74,603.89c0,3.88-3.01,6.89-6.35,6.89c-3.34,0-6.35-3.01-6.35-6.89s3.01-6.89,6.35-6.89
				C977.72,597,980.74,600.01,980.74,603.89z M969.76,603.89c0,3.12,2.26,5.38,4.63,5.38s4.63-2.26,4.63-5.38s-2.26-5.38-4.63-5.38
				S969.76,600.77,969.76,603.89z"/>
			<path class="st0" d="M992.79,609.05c-0.32,0.32-0.67,0.6-1.08,0.86c-0.71,0.43-1.72,0.86-3.01,0.86c-3.34,0-6.35-3.01-6.35-6.89
				s3.01-6.89,6.35-6.89c3.01,0,4.84,1.83,5.7,4.41h-1.83c-0.54-1.72-1.72-2.91-3.87-2.91c-2.37,0-4.63,2.26-4.63,5.38
				s2.26,5.38,4.63,5.38c2.15,0,4.09-1.94,4.09-3.88h-3.98v-1.51h5.71v6.78h-1.29L992.79,609.05z"/>
			<path class="st0" d="M997.74,597.1h1.72v13.56h-1.72V597.1z M999.36,593.01h1.61l-1.83,2.58h-1.08L999.36,593.01z"/>
			<path class="st0" d="M1006.36,597.1h1.51l5.17,13.56h-1.83l-1.29-3.34h-5.6l-1.29,3.34h-1.83L1006.36,597.1z M1009.37,605.82
				l-2.26-5.92l-2.26,5.92H1009.37z"/>
		</g>
		<g>
			<g>
				<path class="st0" d="M713.4,633.84h8.61v1.51h-6.89v4.31h6.35v1.51h-6.35v4.74h7.1v1.51h-8.83V633.84z"/>
				<path class="st0" d="M725.89,643.42c0,1.64,0.97,2.58,2.8,2.58c1.83,0,2.8-0.95,2.8-2.15c0-3.34-7.21-1.61-7.21-6.46
					c0-1.83,1.83-3.66,4.41-3.66c2.35,0,4.2,1.83,4.2,4.09h-1.72c0-1.53-1.08-2.58-2.48-2.58c-1.61,0-2.69,1.06-2.69,2.15
					c0,3.34,7.21,1.61,7.21,6.46c0,1.94-1.7,3.66-4.52,3.66c-2.82,0-4.52-1.72-4.52-4.09H725.89z"/>
				<path class="st0" d="M738.16,635.35h-4.09v-1.51h9.9v1.51h-4.09v12.06h-1.72V635.35z"/>
				<path class="st0" d="M746.02,633.84h8.61v1.51h-6.89v4.31h6.35v1.51h-6.35v4.74h7.1v1.51h-8.83V633.84z M751.08,629.75h1.61
					l-1.83,2.58h-1.08L751.08,629.75z"/>
				<path class="st0" d="M760.34,635.35h-4.09v-1.51h9.9v1.51h-4.09v12.06h-1.72V635.35z"/>
				<path class="st0" d="M768.2,633.84h1.72v13.56h-1.72V633.84z"/>
				<path class="st0" d="M784.56,642.88c-0.75,2.58-2.8,4.63-5.81,4.63c-3.34,0-6.35-3.01-6.35-6.89c0-3.88,3.01-6.89,6.35-6.89
					c2.91,0,4.95,2.05,5.71,4.63h-1.83c-0.45-1.72-1.81-3.12-3.88-3.12c-2.37,0-4.63,2.26-4.63,5.38c0,3.12,2.26,5.38,4.63,5.38
					c2.17,0,3.53-1.4,3.98-3.12H784.56z"/>
				<path class="st0" d="M790.16,633.84h1.51l5.17,13.56H795l-1.29-3.34h-5.6l-1.29,3.34h-1.83L790.16,633.84z M793.17,642.56
					l-2.26-5.92l-2.26,5.92H793.17z"/>
			</g>
			<g>
				<path class="st0" d="M882.96,633.84h5.06c2.26,0,4.09,1.83,4.09,3.98c0,1.57-0.75,2.52-1.51,3.1c-0.45,0.34-0.95,0.6-1.49,0.78
					l3.32,5.7h-1.94l-3.23-5.6h-2.58v5.6h-1.72V633.84z M888.02,640.3c1.27,0,2.37-1.1,2.37-2.48c0-1.38-1.1-2.48-2.37-2.48h-3.34
					v4.95H888.02z"/>
				<path class="st0" d="M894.91,633.84h8.61v1.51h-6.89v4.31h6.35v1.51h-6.35v4.74h7.1v1.51h-8.83V633.84z"/>
				<path class="st0" d="M916.12,645.79c-0.32,0.32-0.67,0.6-1.08,0.86c-0.71,0.43-1.72,0.86-3.01,0.86c-3.34,0-6.35-3.01-6.35-6.89
					c0-3.88,3.01-6.89,6.35-6.89c3.01,0,4.84,1.83,5.71,4.41h-1.83c-0.54-1.72-1.72-2.91-3.87-2.91c-2.37,0-4.63,2.26-4.63,5.38
					c0,3.12,2.26,5.38,4.63,5.38c2.15,0,4.09-1.94,4.09-3.88h-3.98v-1.51h5.71v6.78h-1.29L916.12,645.79z"/>
				<path class="st0" d="M921.07,633.84h8.61v1.51h-6.89v4.31h6.35v1.51h-6.35v4.74h7.1v1.51h-8.83V633.84z"/>
				<path class="st0" d="M932.69,633.84h1.51l6.78,10.23v-10.23h1.72v13.56h-1.51l-6.78-10.23v10.23h-1.72V633.84z"/>
				<path class="st0" d="M946.15,633.84h8.61v1.51h-6.89v4.31h6.35v1.51h-6.35v4.74h7.1v1.51h-8.83V633.84z"/>
				<path class="st0" d="M957.78,633.84h5.06c2.26,0,4.09,1.83,4.09,3.98c0,1.57-0.75,2.52-1.51,3.1c-0.45,0.34-0.95,0.6-1.49,0.78
					l3.32,5.7h-1.94l-3.23-5.6h-2.58v5.6h-1.72V633.84z M962.84,640.3c1.27,0,2.37-1.1,2.37-2.48c0-1.38-1.1-2.48-2.37-2.48h-3.34
					v4.95H962.84z"/>
				<path class="st0" d="M973.17,633.84h1.51l5.17,13.56h-1.83l-1.29-3.34h-5.6l-1.29,3.34H968L973.17,633.84z M976.18,642.56
					l-2.26-5.92l-2.26,5.92H976.18z"/>
				<path class="st0" d="M983.4,635.35h-4.09v-1.51h9.9v1.51h-4.09v12.06h-1.72V635.35z"/>
				<path class="st0" d="M991.25,633.84h1.72v13.56h-1.72V633.84z"/>
				<path class="st0" d="M994.91,633.84h1.83l3.98,11.09l3.98-11.09h1.83l-4.95,13.56h-1.72L994.91,633.84z"/>
				<path class="st0" d="M1010.85,633.84h1.51l5.17,13.56h-1.83l-1.29-3.34h-5.6l-1.29,3.34h-1.83L1010.85,633.84z M1013.86,642.56
					l-2.26-5.92l-2.26,5.92H1013.86z"/>
			</g>
			<g>
				<path class="st0" d="M1105.58,633.84h8.29v1.51h-6.57v4.52h5.38v1.51h-5.38v6.03h-1.72V633.84z"/>
				<path class="st0" d="M1116.13,633.84h1.72v8.83c0,2.07,1.27,3.34,3.23,3.34c1.96,0,3.23-1.27,3.23-3.34v-8.83h1.72v8.83
					c0,2.8-2.05,4.84-4.95,4.84s-4.95-2.05-4.95-4.84V633.84z"/>
				<path class="st0" d="M1129.26,633.84h1.51l6.78,10.23v-10.23h1.72v13.56h-1.51l-6.78-10.23v10.23h-1.72V633.84z"/>
				<path class="st0" d="M1153.92,642.88c-0.75,2.58-2.8,4.63-5.81,4.63c-3.34,0-6.35-3.01-6.35-6.89c0-3.88,3.01-6.89,6.35-6.89
					c2.91,0,4.95,2.05,5.71,4.63h-1.83c-0.45-1.72-1.81-3.12-3.88-3.12c-2.37,0-4.63,2.26-4.63,5.38c0,3.12,2.26,5.38,4.63,5.38
					c2.17,0,3.53-1.4,3.98-3.12H1153.92z"/>
				<path class="st0" d="M1156.28,633.84h1.72v13.56h-1.72V633.84z"/>
				<path class="st0" d="M1173.18,640.62c0,3.88-3.01,6.89-6.35,6.89c-3.34,0-6.35-3.01-6.35-6.89c0-3.88,3.01-6.89,6.35-6.89
					C1170.17,633.73,1173.18,636.75,1173.18,640.62z M1162.2,640.62c0,3.12,2.26,5.38,4.63,5.38c2.37,0,4.63-2.26,4.63-5.38
					c0-3.12-2.26-5.38-4.63-5.38C1164.47,635.24,1162.2,637.5,1162.2,640.62z"/>
				<path class="st0" d="M1175.66,633.84h1.51l6.78,10.23v-10.23h1.72v13.56h-1.51l-6.78-10.23v10.23h-1.72V633.84z"/>
				<path class="st0" d="M1192.56,633.84h1.51l5.17,13.56h-1.83l-1.29-3.34h-5.6l-1.29,3.34h-1.83L1192.56,633.84z M1195.58,642.56
					l-2.26-5.92l-2.26,5.92H1195.58z"/>
				<path class="st0" d="M1200.96,633.84h1.72v12.06h6.46v1.51h-8.18V633.84z"/>
			</g>
			<g>
				<rect x="806.48" y="641.68" class="st0" width="65.85" height="0.36"/>
			</g>
			<g>
				<rect x="1027.52" y="641.68" class="st0" width="65.85" height="0.36"/>
			</g>
		</g>
	</g>
	<g>
		<path class="st0" d="M769.08,409.52c0,19.03-13.69,31.43-28.85,31.43h-20.32v-0.26c0.52-2.24,1.64-6.8,1.64-11.63v-38.23
			c0-4.82-1.12-9.39-1.64-11.63v-0.26h20.32C755.39,378.95,769.08,391.35,769.08,409.52z M760.55,409.52
			c-0.17-16.02-8.53-27.64-21.96-27.64h-9.47v56.06h9.47C752.03,437.94,760.64,426.05,760.55,409.52z"/>
		<path class="st0" d="M824.02,440.61v0.34h-9.21c-2.15-2.41-5.86-10.59-8.53-16.71c-2.5-5.77-6.29-10.42-11.8-11.8h-6.89
			c0.17,0,0.34-0.09,0.43-0.09c-0.09,0-0.26,0.09-0.43,0.09h-3.1v16.62c0,4.82,1.12,9.39,1.64,11.63v0.26h-10.85v-0.26
			c0.52-2.24,1.64-6.8,1.64-11.63v-38.23c0-4.82-1.12-9.39-1.64-11.63v-0.26h23.42c11.97,0,19.81,6.03,19.81,16.36
			c0,9.47-6.63,15.07-15.5,16.28c4.13,1.29,7.32,3.87,9.56,8.44C818.08,431.39,819.29,435.61,824.02,440.61z M795.86,409.52
			c8.53,0,14.47-4.31,14.47-13.95c0-9.21-5.34-13.78-13.78-13.78h-12.06v27.73H795.86z"/>
		<path class="st0" d="M880.51,440.69v0.26h-12.23v-0.34c0.6-2.41,0.17-7.15-1.72-12.06l-3.27-8.78h-24.71l-2.33,6.46
			c-2.15,5.86-2.15,11.45-1.21,14.38v0.34h-8.7v-0.26c1.72-2.58,3.96-7.84,5.94-13.43l14.9-40.65c1.12-3.1,0.43-5.94-0.34-7.49
			v-0.17h9.13l18.95,49.77C876.73,433.72,878.36,437.51,880.51,440.69z M862.09,416.58l-11.37-30.23l-10.94,30.23H862.09z"/>
		<path class="st0" d="M886.37,436.21c0-3.01,2.41-5.43,5.43-5.43c2.93,0,5.43,2.41,5.43,5.43c0,2.93-2.5,5.34-5.43,5.34
			C888.78,441.55,886.37,439.14,886.37,436.21z"/>
		<g>
			<path class="st0" d="M981.64,390.83v38.23c0,4.82,1.12,9.39,1.64,11.63v0.26H972.6v-0.26c0.52-2.24,1.64-6.8,1.64-11.63v-41.25
				l-20.58,53.13h-3.53v-0.09l-1.29,0.09l-20.41-52.87c0,0.95-0.09,1.89-0.09,2.84v34.01c0,6.55,2.07,12.75,3.01,15.67v0.43h-9.39
				v-0.43c0.95-2.93,3.01-9.13,3.01-15.67v-34.01c0-4.82-1.64-9.39-2.41-11.63v-0.26h10.16l20.67,53.56l20.84-53.65h9.04v0.26
				C982.76,381.44,981.64,386.01,981.64,390.83z"/>
			<path class="st0" d="M1031.85,432.08v8.87h-40.56v-0.26c0.52-2.24,1.64-6.8,1.64-11.63v-38.23c0-4.82-1.12-9.39-1.64-11.63v-0.26
				h40.3v8.87h-0.34c-2.76-1.89-8.35-5.94-14.21-5.94h-16.53v25.75h10.85c5.51,0,10.76-1.81,13.35-2.67h0.34v8.09h-0.34
				c-2.58-0.86-7.84-2.67-13.35-2.67h-10.85v27.64h16.79c5.86,0,11.45-4.05,14.21-5.94H1031.85z"/>
			<path class="st0" d="M1076.29,430.1v10.85h-37.8v-0.26c0.52-2.24,1.64-6.8,1.64-11.63v-38.23c0-4.82-1.12-9.39-1.64-11.63v-0.26
				h10.85v0.26c-0.52,2.24-1.64,6.8-1.64,11.63v47.19h13.95c5.94,0,11.63-5.85,14.3-7.92H1076.29z"/>
			<path class="st0" d="M1083.86,440.69c0.52-2.24,1.64-6.8,1.64-11.63v-38.23c0-4.82-1.12-9.39-1.64-11.63v-0.26h10.76v0.26
				c-0.52,2.24-1.64,6.8-1.64,11.63v38.23c0,4.82,1.12,9.39,1.64,11.63v0.26h-10.76V440.69z"/>
			<path class="st0" d="M1154.65,379.29c-0.95,3.01-3.01,9.21-3.01,15.67v45.99h-5.08l-36.17-53.05v37.03
				c0,6.46,2.07,12.66,3.01,15.67v0.34h-9.47v-0.34c0.95-3.01,3.01-9.21,3.01-15.67V393.5c0-5.86-1.89-11.45-2.84-14.21v-0.34h9.39
				l34.7,50.89v-34.88c0-6.46-2.07-12.66-3.01-15.67v-0.34h9.47V379.29z"/>
			<path class="st0" d="M1211.4,440.69v0.26h-12.23v-0.34c0.6-2.41,0.17-7.15-1.72-12.06l-3.27-8.78h-24.71l-2.33,6.46
				c-2.15,5.86-2.15,11.45-1.21,14.38v0.34h-8.7v-0.26c1.72-2.58,3.96-7.84,5.94-13.43l14.9-40.65c1.12-3.1,0.43-5.94-0.34-7.49
				v-0.17h9.13l18.95,49.77C1207.61,433.72,1209.25,437.51,1211.4,440.69z M1192.98,416.58l-11.37-30.23l-10.94,30.23H1192.98z"/>
		</g>
		<path class="st0" d="M670.69,481.77h-0.34c-2.5-2.07-7.92-8.18-13.52-8.18h-7.15v47.1c0,4.82,1.12,9.39,1.64,11.63v0.26h-10.85
			v-0.26c0.52-2.24,1.64-6.8,1.64-11.63v-47.1h-7.23c-5.6,0-11.02,6.11-13.52,8.18H621v-11.2h49.69V481.77z"/>
		<path class="st0" d="M725.11,532.24v0.34h-9.21c-2.15-2.41-5.86-10.59-8.53-16.71c-2.5-5.77-6.29-10.42-11.8-11.8h-6.89
			c0.17,0,0.34-0.09,0.43-0.09c-0.09,0-0.26,0.09-0.43,0.09h-3.1v16.62c0,4.82,1.12,9.39,1.64,11.63v0.26h-10.85v-0.26
			c0.52-2.24,1.64-6.8,1.64-11.63v-38.23c0-4.82-1.12-9.39-1.64-11.63v-0.26h23.42c11.97,0,19.81,6.03,19.81,16.36
			c0,9.47-6.63,15.07-15.5,16.28c4.13,1.29,7.32,3.87,9.56,8.44C719.17,523.02,720.38,527.24,725.11,532.24z M696.95,501.15
			c8.53,0,14.47-4.31,14.47-13.95c0-9.21-5.34-13.78-13.78-13.78h-12.06v27.73H696.95z"/>
		<path class="st0" d="M728.9,509.33v-26.87c0-4.82-1.12-9.39-1.64-11.63v-0.26h10.85v0.26c-0.52,2.24-1.64,6.8-1.64,11.63v27.04
			c0,12.49,6.37,19.98,16.19,19.98c8.35,0,17.05-5.51,17.05-19.38v-23.51c0-6.46-1.89-12.66-2.76-15.67v-0.34h8.96v0.34
			c-0.86,3.01-2.76,9.21-2.76,15.67v24.11c0,15.33-10.33,22.91-21.7,22.91C740.27,533.61,728.9,525.86,728.9,509.33z"/>
		<path class="st0" d="M779.72,528.71v-12.49h0.6c2.93,5.68,8.01,13.43,14.12,13.43s7.49-6.2,7.49-12.14v-40.99
			c0-2.41-0.6-4.74-0.86-5.77v-0.17h9.21v0.17c-0.26,1.03-0.86,3.36-0.86,5.77v39.01c0,12.66-5.86,17.57-14.38,17.57
			C789.53,533.1,783.94,531.03,779.72,528.71z"/>
		<path class="st0" d="M820.28,532.32c0.52-2.24,1.64-6.8,1.64-11.63v-38.23c0-4.82-1.12-9.39-1.64-11.63v-0.26h10.76v0.26
			c-0.52,2.24-1.64,6.8-1.64,11.63v38.23c0,4.82,1.12,9.39,1.64,11.63v0.26h-10.76V532.32z"/>
		<path class="st0" d="M878.14,521.73v10.85h-37.8v-0.26c0.52-2.24,1.64-6.8,1.64-11.63v-38.23c0-4.82-1.12-9.39-1.64-11.63v-0.26
			h10.85v0.26c-0.52,2.24-1.64,6.8-1.64,11.63v47.19h13.95c5.94,0,11.63-5.85,14.3-7.92H878.14z"/>
		<path class="st0" d="M922.15,521.73v10.85h-37.8v-0.26c0.52-2.24,1.64-6.8,1.64-11.63v-38.23c0-4.82-1.12-9.39-1.64-11.63v-0.26
			h10.85v0.26c-0.52,2.24-1.64,6.8-1.64,11.63v47.19h13.95c5.94,0,11.63-5.85,14.3-7.92H922.15z"/>
		<path class="st0" d="M923.36,501.24c0-18.34,12.92-31.52,28.16-31.52c15.24,0,28.25,13.18,28.25,31.52
			c0,18.43-13,32.38-28.25,32.38C936.27,533.61,923.36,519.66,923.36,501.24z M971.15,501.24c0-15.16-7.66-28.5-19.63-28.5
			c-11.97,0-19.55,13.43-19.55,28.59c0,15.33,7.58,29.19,19.55,29.19C963.49,530.51,971.15,516.56,971.15,501.24z"/>
		<path class="st0" d="M1070.01,509.33v-26.87c0-4.82-1.12-9.39-1.64-11.63v-0.26h10.85v0.26c-0.52,2.24-1.64,6.8-1.64,11.63v27.04
			c0,12.49,6.37,19.98,16.19,19.98c8.35,0,17.05-5.51,17.05-19.38v-23.51c0-6.46-1.89-12.66-2.76-15.67v-0.34h8.96v0.34
			c-0.86,3.01-2.76,9.21-2.76,15.67v24.11c0,15.33-10.33,22.91-21.7,22.91C1081.38,533.61,1070.01,525.86,1070.01,509.33z"/>
		<path class="st0" d="M1126.16,532.32c0.52-2.24,1.64-6.8,1.64-11.63v-38.23c0-4.82-1.12-9.39-1.64-11.63v-0.26h10.76v0.26
			c-0.52,2.24-1.64,6.8-1.64,11.63v38.23c0,4.82,1.12,9.39,1.64,11.63v0.26h-10.76V532.32z"/>
		<path class="st0" d="M1194.97,532.24v0.34h-9.21c-2.15-2.41-5.86-10.59-8.53-16.71c-2.5-5.77-6.29-10.42-11.8-11.8h-6.89
			c0.17,0,0.34-0.09,0.43-0.09c-0.09,0-0.26,0.09-0.43,0.09h-3.1v16.62c0,4.82,1.12,9.39,1.64,11.63v0.26h-10.85v-0.26
			c0.52-2.24,1.64-6.8,1.64-11.63v-38.23c0-4.82-1.12-9.39-1.64-11.63v-0.26h23.42c11.97,0,19.81,6.03,19.81,16.36
			c0,9.47-6.63,15.07-15.5,16.28c4.13,1.29,7.32,3.87,9.56,8.44C1189.03,523.02,1190.23,527.24,1194.97,532.24z M1166.81,501.15
			c8.53,0,14.47-4.31,14.47-13.95c0-9.21-5.34-13.78-13.78-13.78h-12.06v27.73H1166.81z"/>
		<path class="st0" d="M1194.8,501.24c0-18.34,12.92-31.52,28.16-31.52c15.24,0,28.25,13.18,28.25,31.52
			c0,18.43-13,32.38-28.25,32.38C1207.72,533.61,1194.8,519.66,1194.8,501.24z M1242.59,501.24c0-15.16-7.66-28.5-19.63-28.5
			c-11.97,0-19.55,13.43-19.55,28.59c0,15.33,7.58,29.19,19.55,29.19C1234.93,530.51,1242.59,516.56,1242.59,501.24z"/>
		<path class="st0" d="M1296.93,524.06h0.34v8.52h-44l35.39-58.99h-18.69c-6.11,0-11.97,3.79-14.81,5.51h-0.34v-8.53H1299
			l-35.39,58.99h18.51C1288.24,529.57,1294.09,525.78,1296.93,524.06z"/>
		<path class="st0" d="M1047.22,538.17c-5.44-1.24-9.82-3.49-11.85-4.65c4.42-0.33,8.6-1.79,12.27-4.17
			c0.63-0.43,1.25-0.9,1.87-1.42l0.06,0.02c7.19-5.62,11.99-15.06,11.99-26.72c0-18.34-13-31.52-28.25-31.52
			c-15.24,0-28.16,13.18-28.16,31.52c0,13.97,6.95,24.88,16.69,29.7l-2.99-0.1c-2.72,0.1-3.93,0.9-4.2,1.11
			c-0.02,0.01-0.04,0.03-0.05,0.04c0,0-0.01,0.01-0.01,0.01v0c-1,0.81-2,1.76-1.81,2.26c0,0,0.08,1.59,5.01-0.28l0,0.01
			c0,0,2.01-0.96,4.99-0.97c0.75,0.02,1.62,0.08,2.59,0.23c0.03,0,0.05,0.01,0.08,0.01l0,0c0.19,0.03,0.37,0.06,0.57,0.1
			c0.77,0.15,1.74,0.39,2.82,0.75l-0.01,0c0,0,1.99,0.63,3.51,1.55c0.17,0.11,0.41,0.28,0.71,0.48c0.04,0.03,0.09,0.07,0.13,0.1
			l-0.01-0.02c1.71,1.14,5.08,3.26,7.16,3.88c4.61,1.75,12.11,3.18,20.94-0.6c4.63-1.77,6.03-4.2,6.03-4.2
			C1061.69,539.69,1053.81,539.51,1047.22,538.17z M1013.78,501.24c0-14.81,7.06-28.33,19.55-28.33c12.23,0,19.63,12.92,19.63,28.33
			c0,15.93-7.23,29.19-19.63,29.19C1021.01,530.43,1013.78,517.42,1013.78,501.24z"/>
	</g>
</g>
</svg>
