<?xml version="1.0" encoding="utf-8"?>
<!-- Generator: Adobe Illustrator 28.2.0, SVG Export Plug-In . SVG Version: 6.00 Build 0)  -->
<svg version="1.1" id="Capa_1" xmlns="http://www.w3.org/2000/svg" xmlns:xlink="http://www.w3.org/1999/xlink" x="0px" y="0px"
	 viewBox="0 0 1920 1080" style="enable-background:new 0 0 1920 1080;" xml:space="preserve">
<style type="text/css">
	.st0{fill:#262626;}
	.st1{fill:#FFFFFF;}
	.st2{fill:#F2F2ED;}
	.st3{fill:#82867F;}
</style>
<g>
	<g>
		<path class="st0" d="M1113.72,326.16v30.6c0,3.86,0.9,7.51,1.31,9.3v0.21h-8.55v-0.21c0.41-1.79,1.31-5.44,1.31-9.3v-33.01
			l-16.47,42.52h-2.83v-0.07l-1.03,0.07l-16.33-42.31c0,0.76-0.07,1.52-0.07,2.27v27.22c0,5.24,1.65,10.2,2.41,12.54v0.34h-7.51
			v-0.34c0.76-2.34,2.41-7.3,2.41-12.54v-27.22c0-3.86-1.31-7.51-1.93-9.3v-0.21h8.13l16.54,42.87l16.68-42.94h7.24v0.21
			C1114.61,318.65,1113.72,322.3,1113.72,326.16z"/>
		<path class="st0" d="M1153.9,359.17v7.1h-32.46v-0.21c0.41-1.79,1.31-5.44,1.31-9.3v-30.6c0-3.86-0.9-7.51-1.31-9.3v-0.21h32.25
			v7.1h-0.28c-2.21-1.52-6.69-4.76-11.37-4.76h-13.23v20.61h8.68c4.41,0,8.62-1.45,10.68-2.14h0.28v6.48h-0.28
			c-2.07-0.69-6.27-2.14-10.68-2.14h-8.68v22.12h13.44c4.69,0,9.17-3.24,11.37-4.76H1153.9z"/>
		<path class="st0" d="M1189.46,357.59v8.68h-30.25v-0.21c0.41-1.79,1.31-5.44,1.31-9.3v-30.6c0-3.86-0.9-7.51-1.31-9.3v-0.21h8.68
			v0.21c-0.41,1.79-1.31,5.44-1.31,9.3v37.77h11.16c4.76,0,9.3-4.69,11.44-6.34H1189.46z"/>
		<path class="st0" d="M1195.53,366.06c0.41-1.79,1.31-5.44,1.31-9.3v-30.6c0-3.86-0.9-7.51-1.31-9.3v-0.21h8.61v0.21
			c-0.41,1.79-1.31,5.44-1.31,9.3v30.6c0,3.86,0.9,7.51,1.31,9.3v0.21h-8.61V366.06z"/>
		<path class="st0" d="M1252.18,316.93c-0.76,2.41-2.41,7.37-2.41,12.54v36.8h-4.07l-28.94-42.45v29.63
			c0,5.17,1.65,10.13,2.41,12.54v0.28h-7.58v-0.28c0.76-2.41,2.41-7.37,2.41-12.54V328.3c0-4.69-1.52-9.17-2.27-11.37v-0.28h7.51
			l27.77,40.73v-27.91c0-5.17-1.65-10.13-2.41-12.54v-0.28h7.58V316.93z"/>
		<path class="st0" d="M1297.6,366.06v0.21h-9.79v-0.28c0.48-1.93,0.14-5.72-1.38-9.65l-2.62-7.03h-19.78l-1.86,5.17
			c-1.72,4.69-1.72,9.17-0.97,11.51v0.28h-6.96v-0.21c1.38-2.07,3.17-6.27,4.76-10.75l11.92-32.53c0.9-2.48,0.34-4.76-0.28-6v-0.14
			h7.3l15.16,39.83C1294.56,360.48,1295.87,363.51,1297.6,366.06z M1282.85,346.77l-9.1-24.19l-8.75,24.19H1282.85z"/>
		<path class="st0" d="M1355.49,325.61h-0.28c-2-1.65-6.34-6.55-10.82-6.55h-5.72v37.7c0,3.86,0.9,7.51,1.31,9.3v0.21h-8.68v-0.21
			c0.41-1.79,1.31-5.44,1.31-9.3v-37.7h-5.79c-4.48,0-8.82,4.89-10.82,6.55h-0.28v-8.96h39.77V325.61z"/>
		<path class="st0" d="M1399.05,365.99v0.28h-7.37c-1.72-1.93-4.69-8.48-6.82-13.37c-2-4.62-5.03-8.34-9.44-9.44h-5.51
			c0.14,0,0.28-0.07,0.34-0.07c-0.07,0-0.21,0.07-0.34,0.07h-2.48v13.3c0,3.86,0.9,7.51,1.31,9.3v0.21h-8.68v-0.21
			c0.41-1.79,1.31-5.44,1.31-9.3v-30.6c0-3.86-0.9-7.51-1.31-9.3v-0.21h18.75c9.58,0,15.85,4.82,15.85,13.09
			c0,7.58-5.31,12.06-12.41,13.03c3.31,1.03,5.86,3.1,7.65,6.75C1394.29,358.62,1395.25,362,1399.05,365.99z M1376.51,341.12
			c6.82,0,11.58-3.45,11.58-11.16c0-7.37-4.27-11.03-11.03-11.03h-9.65v22.19H1376.51z"/>
		<path class="st0" d="M1402.08,347.66v-21.5c0-3.86-0.9-7.51-1.31-9.3v-0.21h8.68v0.21c-0.41,1.79-1.31,5.44-1.31,9.3v21.64
			c0,9.99,5.1,15.99,12.96,15.99c6.68,0,13.64-4.41,13.64-15.51v-18.81c0-5.17-1.52-10.13-2.21-12.54v-0.28h7.17v0.28
			c-0.69,2.41-2.21,7.37-2.21,12.54v19.3c0,12.27-8.27,18.33-17.37,18.33C1411.18,367.1,1402.08,360.9,1402.08,347.66z"/>
		<path class="st0" d="M1442.74,363.17v-9.99h0.48c2.34,4.55,6.41,10.75,11.3,10.75c4.89,0,6-4.96,6-9.72v-32.8
			c0-1.93-0.48-3.79-0.69-4.62v-0.14h7.37v0.14c-0.21,0.83-0.69,2.69-0.69,4.62v31.22c0,10.13-4.69,14.06-11.51,14.06
			C1450.6,366.68,1446.12,365.03,1442.74,363.17z"/>
		<path class="st0" d="M1475.2,366.06c0.41-1.79,1.31-5.44,1.31-9.3v-30.6c0-3.86-0.9-7.51-1.31-9.3v-0.21h8.61v0.21
			c-0.41,1.79-1.31,5.44-1.31,9.3v30.6c0,3.86,0.9,7.51,1.31,9.3v0.21h-8.61V366.06z"/>
		<path class="st0" d="M1521.52,357.59v8.68h-30.25v-0.21c0.41-1.79,1.31-5.44,1.31-9.3v-30.6c0-3.86-0.9-7.51-1.31-9.3v-0.21h8.68
			v0.21c-0.41,1.79-1.31,5.44-1.31,9.3v37.77h11.16c4.76,0,9.3-4.69,11.44-6.34H1521.52z"/>
		<path class="st0" d="M1556.73,357.59v8.68h-30.25v-0.21c0.41-1.79,1.31-5.44,1.31-9.3v-30.6c0-3.86-0.9-7.51-1.31-9.3v-0.21h8.68
			v0.21c-0.41,1.79-1.31,5.44-1.31,9.3v37.77h11.16c4.76,0,9.3-4.69,11.44-6.34H1556.73z"/>
		<path class="st0" d="M1557.7,341.18c0-14.68,10.34-25.22,22.54-25.22c12.2,0,22.6,10.54,22.6,25.22
			c0,14.75-10.41,25.91-22.6,25.91C1568.04,367.1,1557.7,355.93,1557.7,341.18z M1595.95,341.18c0-12.13-6.13-22.81-15.71-22.81
			s-15.64,10.75-15.64,22.88c0,12.27,6.06,23.36,15.64,23.36S1595.95,353.45,1595.95,341.18z"/>
	</g>
	<g>
		<path class="st0" d="M1309.28,266.55c0,15.24-10.97,25.18-23.11,25.18h-16.28v-0.21c0.41-1.79,1.31-5.45,1.31-9.31v-30.63
			c0-3.86-0.9-7.52-1.31-9.31v-0.21h16.28C1298.31,242.07,1309.28,252,1309.28,266.55z M1302.45,266.55
			c-0.14-12.83-6.83-22.14-17.59-22.14h-7.59v44.91h7.59C1295.62,289.32,1302.52,279.8,1302.45,266.55z"/>
		<path class="st0" d="M1353.29,291.46v0.28h-7.38c-1.72-1.93-4.69-8.48-6.83-13.38c-2-4.62-5.04-8.35-9.45-9.45h-5.52
			c0.14,0,0.28-0.07,0.34-0.07c-0.07,0-0.21,0.07-0.34,0.07h-2.48v13.31c0,3.86,0.9,7.52,1.31,9.31v0.21h-8.69v-0.21
			c0.41-1.79,1.31-5.45,1.31-9.31v-30.63c0-3.86-0.9-7.52-1.31-9.31v-0.21h18.76c9.59,0,15.87,4.83,15.87,13.11
			c0,7.59-5.31,12.07-12.42,13.04c3.31,1.04,5.86,3.1,7.66,6.76C1348.53,284.07,1349.5,287.46,1353.29,291.46z M1330.74,266.55
			c6.83,0,11.59-3.45,11.59-11.18c0-7.38-4.28-11.04-11.04-11.04h-9.66v22.21H1330.74z"/>
		<path class="st0" d="M1398.55,291.53v0.21h-9.8v-0.28c0.48-1.93,0.14-5.73-1.38-9.66l-2.62-7.04h-19.8l-1.86,5.17
			c-1.72,4.69-1.72,9.18-0.97,11.52v0.28h-6.97v-0.21c1.38-2.07,3.17-6.28,4.76-10.76l11.93-32.56c0.9-2.48,0.34-4.76-0.28-6v-0.14
			h7.31l15.18,39.87C1395.51,285.94,1396.82,288.97,1398.55,291.53z M1383.78,272.21l-9.11-24.21l-8.76,24.21H1383.78z"/>
		<path class="st0" d="M1403.24,287.94c0-2.42,1.93-4.35,4.35-4.35c2.35,0,4.35,1.93,4.35,4.35c0,2.35-2,4.28-4.35,4.28
			C1405.17,292.21,1403.24,290.28,1403.24,287.94z"/>
	</g>
</g>
<g>
	<g>
		<g>
			<path class="st0" d="M503.69,266.82c0,15.39-11.07,25.42-23.33,25.42h-16.44v-0.21c0.42-1.81,1.32-5.5,1.32-9.4v-30.92
				c0-3.9-0.91-7.59-1.32-9.4v-0.21h16.44C492.62,242.09,503.69,252.12,503.69,266.82z M496.8,266.82
				c-0.14-12.95-6.89-22.36-17.76-22.36h-7.66v45.34h7.66C489.9,289.8,496.87,280.19,496.8,266.82z"/>
			<path class="st0" d="M548.13,291.96v0.28h-7.45c-1.74-1.95-4.74-8.57-6.89-13.51c-2.02-4.67-5.08-8.43-9.54-9.54h-5.57
				c0.14,0,0.28-0.07,0.35-0.07c-0.07,0-0.21,0.07-0.35,0.07h-2.51v13.44c0,3.9,0.91,7.59,1.32,9.4v0.21h-8.77v-0.21
				c0.42-1.81,1.32-5.5,1.32-9.4v-30.92c0-3.9-0.91-7.59-1.32-9.4v-0.21h18.94c9.68,0,16.02,4.88,16.02,13.23
				c0,7.66-5.36,12.19-12.54,13.16c3.34,1.05,5.92,3.13,7.73,6.82C543.32,284.5,544.3,287.92,548.13,291.96z M525.35,266.82
				c6.89,0,11.7-3.48,11.7-11.28c0-7.45-4.32-11.14-11.14-11.14h-9.75v22.43H525.35z"/>
			<path class="st0" d="M593.81,292.03v0.21h-9.89v-0.28c0.49-1.95,0.14-5.78-1.39-9.75l-2.65-7.1H559.9l-1.88,5.22
				c-1.74,4.74-1.74,9.26-0.97,11.63v0.28h-7.03v-0.21c1.39-2.09,3.2-6.34,4.81-10.86l12.05-32.87c0.91-2.51,0.35-4.8-0.28-6.06
				v-0.14h7.38l15.32,40.25C590.75,286.39,592.07,289.45,593.81,292.03z M578.91,272.53l-9.19-24.44l-8.84,24.44H578.91z"/>
			<path class="st0" d="M598.55,288.41c0-2.44,1.95-4.39,4.39-4.39c2.37,0,4.39,1.95,4.39,4.39c0,2.37-2.02,4.32-4.39,4.32
				C600.5,292.72,598.55,290.77,598.55,288.41z"/>
		</g>
		<g>
			<path class="st0" d="M675.59,251.71v30.92c0,3.9,0.91,7.59,1.32,9.4v0.21h-8.64v-0.21c0.42-1.81,1.32-5.5,1.32-9.4v-33.36
				l-16.64,42.97h-2.86v-0.07l-1.04,0.07l-16.5-42.76c0,0.77-0.07,1.53-0.07,2.3v27.51c0,5.29,1.67,10.31,2.44,12.67v0.35h-7.59
				v-0.35c0.77-2.37,2.44-7.38,2.44-12.67v-27.51c0-3.9-1.32-7.59-1.95-9.4v-0.21h8.22l16.71,43.32l16.85-43.39h7.31v0.21
				C676.5,244.11,675.59,247.81,675.59,251.71z"/>
			<path class="st0" d="M716.19,285.06v7.17h-32.8v-0.21c0.42-1.81,1.32-5.5,1.32-9.4v-30.92c0-3.9-0.91-7.59-1.32-9.4v-0.21h32.59
				v7.17h-0.28c-2.23-1.53-6.75-4.8-11.49-4.8h-13.37v20.82h8.77c4.46,0,8.71-1.46,10.79-2.16h0.28v6.55h-0.28
				c-2.09-0.7-6.34-2.16-10.79-2.16h-8.77v22.35h13.58c4.74,0,9.26-3.27,11.49-4.8H716.19z"/>
			<path class="st0" d="M752.13,283.46v8.77h-30.57v-0.21c0.42-1.81,1.32-5.5,1.32-9.4v-30.92c0-3.9-0.91-7.59-1.32-9.4v-0.21h8.77
				v0.21c-0.42,1.81-1.32,5.5-1.32,9.4v38.16h11.28c4.81,0,9.4-4.73,11.56-6.41H752.13z"/>
			<path class="st0" d="M758.26,292.03c0.42-1.81,1.32-5.5,1.32-9.4v-30.92c0-3.9-0.91-7.59-1.32-9.4v-0.21h8.7v0.21
				c-0.42,1.81-1.32,5.5-1.32,9.4v30.92c0,3.9,0.91,7.59,1.32,9.4v0.21h-8.7V292.03z"/>
			<path class="st0" d="M815.5,242.37c-0.77,2.44-2.44,7.45-2.44,12.67v37.19h-4.11l-29.25-42.9v29.95c0,5.22,1.67,10.24,2.44,12.67
				v0.28h-7.66v-0.28c0.77-2.44,2.44-7.45,2.44-12.67v-25.42c0-4.74-1.53-9.26-2.3-11.49v-0.28h7.59l28.06,41.16v-28.2
				c0-5.22-1.67-10.24-2.44-12.67v-0.28h7.66V242.37z"/>
			<path class="st0" d="M861.4,292.03v0.21h-9.89v-0.28c0.49-1.95,0.14-5.78-1.39-9.75l-2.65-7.1h-19.99l-1.88,5.22
				c-1.74,4.74-1.74,9.26-0.97,11.63v0.28h-7.03v-0.21c1.39-2.09,3.2-6.34,4.81-10.86l12.05-32.87c0.91-2.51,0.35-4.8-0.28-6.06
				v-0.14h7.38l15.32,40.25C858.33,286.39,859.66,289.45,861.4,292.03z M846.49,272.53l-9.19-24.44l-8.84,24.44H846.49z"/>
		</g>
	</g>
	<g>
		<path class="st0" d="M504.11,325.25h-0.28c-2.02-1.67-6.41-6.62-10.93-6.62h-5.78v38.09c0,3.9,0.91,7.59,1.32,9.4v0.21h-8.77
			v-0.21c0.42-1.81,1.32-5.5,1.32-9.4v-38.09h-5.85c-4.53,0-8.91,4.94-10.93,6.62h-0.28v-9.05h40.18V325.25z"/>
		<path class="st0" d="M548.12,366.06v0.28h-7.45c-1.74-1.95-4.74-8.57-6.89-13.51c-2.02-4.67-5.08-8.43-9.54-9.54h-5.57
			c0.14,0,0.28-0.07,0.35-0.07c-0.07,0-0.21,0.07-0.35,0.07h-2.51v13.44c0,3.9,0.91,7.59,1.32,9.4v0.21h-8.77v-0.21
			c0.42-1.81,1.32-5.5,1.32-9.4v-30.92c0-3.9-0.91-7.59-1.32-9.4v-0.21h18.94c9.68,0,16.02,4.88,16.02,13.23
			c0,7.66-5.36,12.19-12.54,13.16c3.34,1.05,5.92,3.13,7.73,6.82C543.32,358.6,544.29,362.02,548.12,366.06z M525.35,340.92
			c6.89,0,11.7-3.48,11.7-11.28c0-7.45-4.32-11.14-11.14-11.14h-9.75v22.43H525.35z"/>
		<path class="st0" d="M551.19,347.53v-21.73c0-3.9-0.91-7.59-1.32-9.4v-0.21h8.77v0.21c-0.42,1.81-1.32,5.5-1.32,9.4v21.87
			c0,10.1,5.15,16.16,13.09,16.16c6.76,0,13.79-4.46,13.79-15.67v-19.01c0-5.22-1.53-10.24-2.23-12.67v-0.28h7.24v0.28
			c-0.7,2.44-2.23,7.45-2.23,12.67v19.5c0,12.4-8.36,18.52-17.55,18.52C560.38,367.17,551.19,360.9,551.19,347.53z"/>
		<path class="st0" d="M592.28,363.2v-10.1h0.49c2.37,4.6,6.48,10.86,11.42,10.86c4.94,0,6.06-5.01,6.06-9.82V321
			c0-1.95-0.49-3.83-0.7-4.67v-0.14H617v0.14c-0.21,0.84-0.7,2.72-0.7,4.67v31.55c0,10.24-4.74,14.21-11.63,14.21
			C600.22,366.75,595.69,365.08,592.28,363.2z"/>
		<path class="st0" d="M625.08,366.13c0.42-1.81,1.32-5.5,1.32-9.4v-30.92c0-3.9-0.91-7.59-1.32-9.4v-0.21h8.71v0.21
			c-0.42,1.81-1.32,5.5-1.32,9.4v30.92c0,3.9,0.91,7.59,1.32,9.4v0.21h-8.71V366.13z"/>
		<path class="st0" d="M671.88,357.56v8.77h-30.57v-0.21c0.42-1.81,1.32-5.5,1.32-9.4v-30.92c0-3.9-0.91-7.59-1.32-9.4v-0.21h8.77
			v0.21c-0.42,1.81-1.32,5.5-1.32,9.4v38.16h11.28c4.81,0,9.4-4.73,11.56-6.41H671.88z"/>
		<path class="st0" d="M707.47,357.56v8.77h-30.57v-0.21c0.42-1.81,1.32-5.5,1.32-9.4v-30.92c0-3.9-0.91-7.59-1.32-9.4v-0.21h8.77
			v0.21c-0.42,1.81-1.32,5.5-1.32,9.4v38.16h11.28c4.81,0,9.4-4.73,11.56-6.41H707.47z"/>
		<path class="st0" d="M708.44,340.99c0-14.83,10.45-25.49,22.77-25.49c12.33,0,22.84,10.66,22.84,25.49
			c0,14.9-10.52,26.18-22.84,26.18C718.89,367.17,708.44,355.89,708.44,340.99z M747.09,340.99c0-12.26-6.2-23.05-15.88-23.05
			c-9.68,0-15.81,10.86-15.81,23.12c0,12.4,6.13,23.61,15.81,23.61C740.89,364.66,747.09,353.38,747.09,340.99z"/>
	</g>
	<g>
		<path class="st0" d="M351.95,253.14c0.7-2.05,1.57-3.72,2.61-5.01c1.04-1.29,2.38-2.23,4.02-2.82c1.63-0.59,3.7-0.92,6.21-0.99
			c2.92,0,4.38,0.51,5.21,1.69c0.7,1,0.95,2.25,1.01,4.45h5.81c0.01-1.89,0.1-3.32,0.76-4.32c0.74-1.12,2.26-1.73,4.57-1.82
			c0.21-0.01,0.42-0.01,0.65-0.01c0.03,0,0.07,0,0.1,0c2.49,0.07,4.55,0.4,6.18,0.99c1.1,0.4,2.07,0.95,2.9,1.67
			c0.38,0.33,0.73,0.7,1.06,1.1c1.08,1.32,1.97,3.01,2.66,5.06c0.22,0.65,0.44,1.34,0.66,2.07l0.01-0.01c0.48,1.6,0.96,3.4,1.43,5.4
			l0.94-0.63l-3.55-18.06h-0.01h-18.37h-24.33l-3.55,18.06l0.94,0.63C350.56,257.68,351.26,255.19,351.95,253.14z"/>
		<path class="st0" d="M386.31,363.93c-3.28-0.75-6.14-1.91-8.19-2.91c2.87-0.33,5.45-1.59,7-2.52c1.06-0.61,2.07-1.32,3.05-2.13
			c2.62-2.2,4.88-5.06,6.77-8.57c1.89-3.51,3.34-7.6,4.34-12.28c1-4.67,1.51-9.82,1.51-15.46c0-6.18-0.62-11.79-1.85-16.85
			c-1.24-5.06-2.95-9.38-5.15-12.97c-2.2-3.59-4.87-6.35-7.99-8.28c-0.87-0.56-2.37-1.36-3.47-1.93l0.29,4.84l0.46,0.38
			c2.47,1.81,4.57,4.38,6.31,7.7c1.74,3.32,3.09,7.28,4.05,11.87c0.97,4.59,1.45,9.67,1.45,15.23c0,5.56-0.44,10.64-1.33,15.23
			c-0.89,4.59-2.14,8.53-3.77,11.81c-1.62,3.28-3.61,5.85-5.96,7.7c-2.36,1.85-5,2.78-7.93,2.78c-2.93,0-5.64-0.93-8.11-2.78
			c-2.36-1.77-4.4-4.19-6.13-7.27c-2.41-4.61-5.11-14.28-5.11-14.28l-0.16-0.54c-1.38-4.82-3.29-11.75-5.83-21.42l-0.26-0.94l0.01,0
			c-0.36-1.38-0.73-2.81-1.12-4.29L335,254.96h-12.05v2.43c2.78,0,4.58,0.21,5.39,0.64c0.81,0.43,1.22,1.41,1.22,2.95
			c0,0.39,0,0.81,0,1.27c0,0.46-0.04,0.97-0.11,1.51l-3.71,59.41c-0.08,2.09-0.21,3.69-0.4,4.81c-0.19,1.12-0.58,1.97-1.16,2.55
			c-0.58,0.58-1.41,0.95-2.49,1.1c-1.08,0.16-2.59,0.23-4.52,0.23v2.55h19.92v-2.55c-1.85,0-3.36-0.04-4.52-0.12
			c-1.16-0.08-2.07-0.29-2.72-0.64c-0.66-0.35-1.1-0.87-1.33-1.56c-0.23-0.7-0.35-1.66-0.35-2.9c0-0.54,0.02-1.12,0.06-1.74
			c0.04-0.62,0.06-1.27,0.06-1.97l0.12-1.51c0.08-0.62,0.11-1.2,0.11-1.74c0-0.54,0.04-1.12,0.12-1.74l0.46-7.06
			c0.08-0.62,0.12-1.2,0.12-1.74c0-0.54,0.04-1.12,0.11-1.74l1.74-28.03c0.16-2.32,0.31-4.65,0.46-7.01
			c0.15-2.36,0.31-12.27,0.46-14.59l17.1,69.63l2.97,10.95l0.01-0.01c1.11,4.1,2.57,7.68,4.37,10.76c2.06,3.5,4.55,6.29,7.47,8.36
			l-0.09,0c0,0,0.01,0,0.01,0.01l-2.71-0.09c-2.42,0.09-3.49,0.8-3.73,0.99c-0.02,0.01-0.03,0.03-0.05,0.04c0,0-0.01,0.01-0.01,0.01
			l0,0c-0.89,0.72-1.77,1.57-1.61,2.01c0,0,0.07,1.41,4.45-0.25l0,0.01c0,0,1.78-0.86,4.43-0.87c0.67,0.01,1.44,0.07,2.3,0.21
			c0.02,0,0.05,0.01,0.07,0.01l0,0c0.17,0.03,0.33,0.05,0.5,0.09c0.23,0.05,0.48,0.1,0.75,0.16c0.8,0.31,1.62,0.56,2.45,0.75
			c0.64,0.24,1.6,0.64,2.41,1.13c0.15,0.1,0.36,0.25,0.63,0.43c0.04,0.03,0.08,0.06,0.12,0.09l-0.01-0.02
			c1.52,1.01,4.51,2.9,6.36,3.45c4.09,1.56,10.76,2.82,18.61-0.53c4.11-1.57,5.36-3.73,5.36-3.73
			C399.17,365.28,392.17,365.12,386.31,363.93z"/>
		<path class="st0" d="M377.9,258.03c0.81-0.35,2.57-0.56,5.27-0.64v-2.43h-11.58l-15.68,58.71l1.36,4.99l14.56-61.21l3.24,64.79
			c0,0.69,0.02,1.35,0.06,1.97c0.04,0.62,0.06,1.2,0.06,1.74c0,1.31-0.12,2.34-0.35,3.07c-0.23,0.74-0.68,1.31-1.33,1.74
			c-0.66,0.43-1.55,0.7-2.66,0.81c-1.12,0.11-2.61,0.17-4.46,0.17v2.66h22.47v-2.66c-1.93,0-3.44-0.1-4.52-0.29
			c-1.08-0.19-1.89-0.58-2.43-1.16c-0.54-0.58-0.89-1.43-1.04-2.55c-0.16-1.12-0.31-2.64-0.46-4.57l-3.59-59.41
			c-0.08-0.62-0.11-1.16-0.11-1.62c0-0.46,0-0.89,0-1.27C376.69,259.33,377.09,258.38,377.9,258.03z"/>
	</g>
</g>
<g>
	<path class="st0" d="M1316,577.84c1.47-4.34,3.31-7.87,5.52-10.59c2.2-2.72,5.03-4.71,8.5-5.96c3.45-1.25,7.83-1.95,13.13-2.09
		c6.18,0,9.26,1.07,11.02,3.57c1.49,2.11,2,4.76,2.13,9.41h12.28c0.02-4,0.22-7.02,1.6-9.12c1.56-2.37,4.78-3.65,9.66-3.84
		c0.44-0.01,0.89-0.02,1.37-0.02c0.07,0,0.14,0,0.21,0c5.27,0.15,9.62,0.85,13.06,2.09c2.33,0.84,4.37,2.02,6.13,3.52
		c0.8,0.71,1.55,1.48,2.24,2.33c2.28,2.8,4.16,6.36,5.63,10.7c0.46,1.37,0.93,2.83,1.39,4.37l0.02-0.01
		c1.01,3.37,2.02,7.18,3.03,11.42l1.99-1.33l-7.5-38.18h-0.02h-38.83h-51.43l-7.5,38.18l1.98,1.33
		C1313.05,587.44,1314.52,582.18,1316,577.84z"/>
	<path class="st0" d="M1388.62,812.01c-6.94-1.59-12.97-4.05-17.32-6.15c6.08-0.69,11.51-3.36,14.8-5.32
		c2.24-1.28,4.38-2.78,6.44-4.5c5.55-4.65,10.32-10.69,14.32-18.11c3.99-7.42,7.06-16.07,9.18-25.95
		c2.12-9.87,3.18-20.76,3.18-32.68c0-13.06-1.31-24.93-3.92-35.62c-2.61-10.69-6.24-19.83-10.89-27.42
		c-4.65-7.59-10.28-13.42-16.89-17.5c-1.84-1.18-5.01-2.87-7.33-4.07l0.61,10.24l0.97,0.81c5.22,3.83,9.67,9.26,13.34,16.28
		c3.67,7.02,6.53,15.38,8.57,25.09c2.04,9.71,3.06,20.44,3.06,32.19c0,11.75-0.94,22.48-2.81,32.19
		c-1.88,9.71-4.53,18.03-7.96,24.97c-3.43,6.94-7.63,12.36-12.61,16.28c-4.98,3.91-10.56,5.87-16.77,5.87
		c-6.2,0-11.91-1.96-17.13-5.87c-4.99-3.74-9.31-8.86-12.96-15.37c-5.09-9.74-10.81-30.19-10.81-30.19l-0.34-1.13
		c-2.91-10.18-6.96-24.83-12.33-45.28l-0.54-1.99l0.02,0c-0.76-2.91-1.55-5.93-2.36-9.07l-29.98-108.01h-25.46v5.14
		c5.87,0,9.67,0.45,11.38,1.35c1.71,0.9,2.57,2.98,2.57,6.24c0,0.82,0,1.72,0,2.69c0,0.98-0.08,2.04-0.24,3.18l-7.83,125.57
		c-0.16,4.41-0.45,7.79-0.86,10.16c-0.41,2.37-1.22,4.16-2.45,5.38c-1.23,1.23-2.98,2-5.27,2.33c-2.29,0.33-5.47,0.49-9.55,0.49
		v5.38h42.1v-5.38c-3.91,0-7.1-0.08-9.55-0.25c-2.45-0.16-4.37-0.61-5.75-1.35c-1.39-0.73-2.33-1.84-2.82-3.3
		c-0.49-1.47-0.73-3.51-0.73-6.12c0-1.14,0.04-2.36,0.12-3.67c0.08-1.31,0.12-2.69,0.12-4.16l0.25-3.18
		c0.16-1.3,0.24-2.53,0.24-3.67c0-1.14,0.08-2.36,0.25-3.67l0.97-14.93c0.16-1.3,0.25-2.53,0.25-3.67c0-1.14,0.08-2.36,0.24-3.67
		l3.67-59.24c0.33-4.89,0.65-9.83,0.98-14.81c0.32-4.98,0.65-25.94,0.98-30.83l36.14,147.17l6.28,23.14l0.02-0.01
		c2.35,8.66,5.43,16.24,9.25,22.75c4.35,7.4,9.62,13.28,15.79,17.67l-0.19-0.01c0.01,0,0.01,0.01,0.02,0.01l-5.73-0.18
		c-5.11,0.18-7.38,1.69-7.89,2.09c-0.03,0.03-0.07,0.06-0.1,0.08c-0.01,0.01-0.02,0.01-0.02,0.01l0,0c-1.89,1.52-3.75,3.31-3.4,4.25
		c0,0,0.15,2.98,9.41-0.52l0,0.02c0,0,3.77-1.81,9.37-1.83c1.41,0.03,3.04,0.16,4.87,0.44c0.05,0.01,0.1,0.02,0.15,0.03l-0.01-0.01
		c0.35,0.05,0.7,0.11,1.07,0.18c0.48,0.1,1.01,0.21,1.57,0.34c1.69,0.65,3.42,1.18,5.19,1.59c1.35,0.51,3.38,1.35,5.1,2.38
		c0.31,0.21,0.77,0.52,1.33,0.9c0.08,0.06,0.17,0.13,0.25,0.19l-0.02-0.04c3.22,2.14,9.54,6.13,13.45,7.29
		c8.65,3.29,22.75,5.97,39.33-1.12c8.69-3.33,11.33-7.89,11.33-7.89C1415.8,814.86,1401.01,814.52,1388.62,812.01z"/>
	<path class="st0" d="M1370.85,588.18c1.71-0.74,5.42-1.18,11.14-1.35v-5.14h-24.47l-33.15,124.1l2.87,10.55l30.77-129.37
		l6.85,136.95c0,1.47,0.04,2.86,0.12,4.16c0.08,1.31,0.12,2.53,0.12,3.67c0,2.78-0.25,4.94-0.74,6.49
		c-0.49,1.55-1.43,2.78-2.81,3.67c-1.39,0.9-3.27,1.47-5.63,1.71c-2.37,0.24-5.51,0.37-9.42,0.37v5.63h47.49v-5.63
		c-4.08,0-7.26-0.2-9.55-0.61c-2.29-0.41-4-1.23-5.14-2.45c-1.14-1.22-1.87-3.02-2.2-5.39c-0.33-2.36-0.65-5.59-0.98-9.67
		l-7.59-125.57c-0.16-1.3-0.24-2.45-0.24-3.43c0-0.98,0-1.87,0-2.69C1368.28,590.92,1369.13,588.92,1370.85,588.18z"/>
</g>
<g>
	<g>
		<g>
			<path class="st0" d="M440.38,740.27c0,14.42-10.37,23.81-21.85,23.81h-15.39v-0.2c0.39-1.7,1.24-5.15,1.24-8.81v-28.96
				c0-3.65-0.85-7.11-1.24-8.81v-0.2h15.39C430.01,717.11,440.38,726.5,440.38,740.27z M433.92,740.27
				c-0.13-12.13-6.46-20.94-16.63-20.94h-7.18v42.46h7.18C427.46,761.79,433.98,752.79,433.92,740.27z"/>
			<path class="st0" d="M482,763.82v0.26h-6.98c-1.63-1.83-4.44-8.02-6.46-12.65c-1.89-4.37-4.76-7.89-8.94-8.94h-5.22
				c0.13,0,0.26-0.06,0.33-0.06c-0.07,0-0.2,0.06-0.33,0.06h-2.35v12.59c0,3.65,0.85,7.11,1.24,8.81v0.2h-8.22v-0.2
				c0.39-1.7,1.24-5.15,1.24-8.81v-28.96c0-3.65-0.85-7.11-1.24-8.81v-0.2h17.74c9.07,0,15,4.57,15,12.39
				c0,7.18-5.02,11.42-11.74,12.33c3.13,0.98,5.54,2.93,7.24,6.39C477.49,756.84,478.41,760.03,482,763.82z M460.67,740.27
				c6.46,0,10.96-3.26,10.96-10.57c0-6.98-4.04-10.44-10.44-10.44h-9.13v21.01H460.67z"/>
			<path class="st0" d="M524.79,763.88v0.2h-9.26v-0.26c0.46-1.83,0.13-5.41-1.3-9.13l-2.48-6.65h-18.72l-1.76,4.89
				c-1.63,4.44-1.63,8.68-0.91,10.89v0.26h-6.59v-0.2c1.3-1.96,3-5.94,4.5-10.18l11.28-30.79c0.85-2.35,0.33-4.5-0.26-5.67v-0.13
				h6.91l14.35,37.7C521.92,758.6,523.16,761.47,524.79,763.88z M510.83,745.62l-8.61-22.9l-8.28,22.9H510.83z"/>
			<path class="st0" d="M529.22,760.49c0-2.28,1.83-4.11,4.11-4.11c2.22,0,4.11,1.83,4.11,4.11c0,2.22-1.89,4.04-4.11,4.04
				C531.05,764.53,529.22,762.71,529.22,760.49z"/>
		</g>
		<g>
			<path class="st0" d="M601.39,726.11v28.96c0,3.65,0.85,7.11,1.24,8.81v0.2h-8.09v-0.2c0.39-1.7,1.24-5.15,1.24-8.81v-31.25
				l-15.59,40.25h-2.67v-0.07l-0.98,0.07l-15.46-40.05c0,0.72-0.07,1.43-0.07,2.15v25.76c0,4.96,1.57,9.66,2.28,11.87v0.33h-7.11
				v-0.33c0.72-2.22,2.28-6.91,2.28-11.87v-25.76c0-3.65-1.24-7.11-1.83-8.81v-0.2h7.7l15.66,40.57l15.79-40.64h6.85v0.2
				C602.24,719,601.39,722.46,601.39,726.11z"/>
			<path class="st0" d="M639.42,757.36v6.72H608.7v-0.2c0.39-1.7,1.24-5.15,1.24-8.81v-28.96c0-3.65-0.85-7.11-1.24-8.81v-0.2h30.53
				v6.72h-0.26c-2.09-1.43-6.33-4.5-10.76-4.5h-12.52v19.5h8.22c4.17,0,8.15-1.37,10.11-2.02h0.26v6.13h-0.26
				c-1.96-0.65-5.94-2.02-10.11-2.02h-8.22v20.94h12.72c4.44,0,8.68-3.07,10.76-4.5H639.42z"/>
			<path class="st0" d="M673.08,755.86v8.22h-28.64v-0.2c0.39-1.7,1.24-5.15,1.24-8.81v-28.96c0-3.65-0.85-7.11-1.24-8.81v-0.2h8.22
				v0.2c-0.39,1.69-1.24,5.15-1.24,8.81v35.75h10.57c4.5,0,8.81-4.43,10.83-6H673.08z"/>
			<path class="st0" d="M678.82,763.88c0.39-1.7,1.24-5.15,1.24-8.81v-28.96c0-3.65-0.85-7.11-1.24-8.81v-0.2h8.15v0.2
				c-0.39,1.69-1.24,5.15-1.24,8.81v28.96c0,3.65,0.85,7.11,1.24,8.81v0.2h-8.15V763.88z"/>
			<path class="st0" d="M732.44,717.37c-0.72,2.28-2.28,6.98-2.28,11.87v34.83h-3.85l-27.4-40.18v28.05c0,4.89,1.57,9.59,2.28,11.87
				v0.26h-7.18v-0.26c0.72-2.28,2.28-6.98,2.28-11.87v-23.81c0-4.44-1.44-8.68-2.15-10.76v-0.26h7.11l26.29,38.55v-26.42
				c0-4.89-1.57-9.59-2.28-11.87v-0.26h7.18V717.37z"/>
			<path class="st0" d="M775.43,763.88v0.2h-9.26v-0.26c0.46-1.83,0.13-5.41-1.3-9.13l-2.48-6.65h-18.72l-1.76,4.89
				c-1.63,4.44-1.63,8.68-0.91,10.89v0.26h-6.59v-0.2c1.3-1.96,3-5.94,4.5-10.18l11.28-30.79c0.85-2.35,0.33-4.5-0.26-5.67v-0.13
				h6.91l14.35,37.7C772.56,758.6,773.8,761.47,775.43,763.88z M761.47,745.62l-8.61-22.9l-8.28,22.9H761.47z"/>
		</g>
	</g>
	<g>
		<path class="st0" d="M440.77,798.82h-0.26c-1.89-1.57-6-6.2-10.24-6.2h-5.41v35.68c0,3.65,0.85,7.11,1.24,8.81v0.2h-8.22v-0.2
			c0.39-1.7,1.24-5.15,1.24-8.81v-35.68h-5.48c-4.24,0-8.35,4.63-10.24,6.2h-0.26v-8.48h37.64V798.82z"/>
		<path class="st0" d="M481.99,837.04v0.26h-6.98c-1.63-1.83-4.44-8.02-6.46-12.65c-1.89-4.37-4.76-7.89-8.94-8.94h-5.22
			c0.13,0,0.26-0.06,0.33-0.06c-0.07,0-0.2,0.06-0.33,0.06h-2.35v12.59c0,3.65,0.85,7.11,1.24,8.81v0.2h-8.22v-0.2
			c0.39-1.7,1.24-5.15,1.24-8.81v-28.96c0-3.65-0.85-7.11-1.24-8.81v-0.2h17.74c9.07,0,15,4.57,15,12.39
			c0,7.18-5.02,11.42-11.74,12.33c3.13,0.98,5.54,2.93,7.24,6.39C477.49,830.06,478.41,833.26,481.99,837.04z M460.66,813.49
			c6.46,0,10.96-3.26,10.96-10.57c0-6.98-4.04-10.44-10.44-10.44h-9.13v21.01H460.66z"/>
		<path class="st0" d="M484.87,819.69v-20.35c0-3.65-0.85-7.11-1.24-8.81v-0.2h8.22v0.2c-0.39,1.69-1.24,5.15-1.24,8.81v20.48
			c0,9.46,4.83,15.13,12.26,15.13c6.33,0,12.92-4.17,12.92-14.68v-17.81c0-4.89-1.44-9.59-2.09-11.87v-0.26h6.78v0.26
			c-0.65,2.28-2.09,6.98-2.09,11.87v18.26c0,11.61-7.83,17.35-16.44,17.35C493.48,838.08,484.87,832.21,484.87,819.69z"/>
		<path class="st0" d="M523.35,834.37v-9.46h0.46c2.22,4.31,6.07,10.18,10.7,10.18c4.63,0,5.67-4.7,5.67-9.2v-31.05
			c0-1.83-0.46-3.59-0.65-4.37v-0.13h6.98v0.13c-0.2,0.78-0.65,2.54-0.65,4.37v29.55c0,9.59-4.44,13.31-10.89,13.31
			C530.79,837.69,526.55,836.13,523.35,834.37z"/>
		<path class="st0" d="M554.08,837.11c0.39-1.7,1.24-5.15,1.24-8.81v-28.96c0-3.65-0.85-7.11-1.24-8.81v-0.2h8.15v0.2
			c-0.39,1.69-1.24,5.15-1.24,8.81v28.96c0,3.65,0.85,7.11,1.24,8.81v0.2h-8.15V837.11z"/>
		<path class="st0" d="M597.91,829.08v8.22h-28.64v-0.2c0.39-1.7,1.24-5.15,1.24-8.81v-28.96c0-3.65-0.85-7.11-1.24-8.81v-0.2h8.22
			v0.2c-0.39,1.69-1.24,5.15-1.24,8.81v35.75h10.57c4.5,0,8.81-4.43,10.83-6H597.91z"/>
		<path class="st0" d="M631.24,829.08v8.22h-28.64v-0.2c0.39-1.7,1.24-5.15,1.24-8.81v-28.96c0-3.65-0.85-7.11-1.24-8.81v-0.2h8.22
			v0.2c-0.39,1.69-1.24,5.15-1.24,8.81v35.75h10.57c4.5,0,8.81-4.43,10.83-6H631.24z"/>
		<path class="st0" d="M632.16,813.56c0-13.89,9.78-23.88,21.33-23.88c11.55,0,21.4,9.98,21.4,23.88c0,13.96-9.85,24.53-21.4,24.53
			C641.94,838.08,632.16,827.52,632.16,813.56z M668.36,813.56c0-11.48-5.81-21.59-14.87-21.59c-9.07,0-14.81,10.18-14.81,21.66
			c0,11.61,5.74,22.11,14.81,22.11C662.55,835.74,668.36,825.17,668.36,813.56z"/>
	</g>
	<g>
		<path class="st0" d="M441.33,547.37c0.76-2.25,1.72-4.09,2.87-5.5c1.14-1.41,2.61-2.44,4.41-3.09c1.79-0.65,4.07-1.01,6.82-1.09
			c3.21,0,4.81,0.56,5.72,1.85c0.77,1.1,1.04,2.47,1.11,4.89h6.38c0.01-2.08,0.11-3.64,0.83-4.74c0.81-1.23,2.48-1.9,5.02-1.99
			c0.23-0.01,0.46-0.01,0.71-0.01c0.04,0,0.07,0,0.11,0c2.74,0.08,5,0.44,6.78,1.09c1.21,0.44,2.27,1.05,3.18,1.83
			c0.42,0.37,0.8,0.77,1.16,1.21c1.18,1.45,2.16,3.31,2.92,5.56c0.24,0.71,0.48,1.47,0.72,2.27l0.01-0.01
			c0.52,1.75,1.05,3.73,1.57,5.93l1.03-0.69l-3.9-19.83h-0.01h-20.17H441.9l-3.9,19.83l1.03,0.69
			C439.8,552.36,440.56,549.63,441.33,547.37z"/>
		<path class="st0" d="M479.05,669c-3.61-0.82-6.74-2.1-8.99-3.19c3.16-0.36,5.98-1.75,7.69-2.76c1.16-0.67,2.28-1.44,3.35-2.34
			c2.88-2.42,5.36-5.55,7.44-9.41c2.07-3.86,3.67-8.35,4.77-13.48c1.1-5.13,1.65-10.78,1.65-16.97c0-6.78-0.68-12.95-2.04-18.5
			c-1.36-5.55-3.24-10.3-5.66-14.24c-2.42-3.94-5.34-6.97-8.77-9.09c-0.96-0.61-2.6-1.49-3.81-2.12l0.32,5.32l0.5,0.42
			c2.71,1.99,5.02,4.81,6.93,8.45c1.91,3.64,3.39,7.99,4.45,13.03c1.06,5.04,1.59,10.62,1.59,16.72c0,6.1-0.49,11.68-1.46,16.72
			c-0.98,5.04-2.35,9.37-4.13,12.97c-1.78,3.6-3.96,6.42-6.55,8.45c-2.59,2.03-5.49,3.05-8.71,3.05c-3.22,0-6.19-1.02-8.9-3.05
			c-2.59-1.94-4.83-4.6-6.73-7.98c-2.64-5.06-5.61-15.68-5.61-15.68l-0.18-0.59c-1.51-5.29-3.62-12.9-6.41-23.52l-0.28-1.03l0.01,0
			c-0.4-1.51-0.81-3.08-1.23-4.71l-15.57-56.1h-13.22v2.67c3.05,0,5.02,0.23,5.91,0.7c0.89,0.47,1.33,1.55,1.33,3.24
			c0,0.43,0,0.89,0,1.4c0,0.51-0.04,1.06-0.13,1.65l-4.07,65.22c-0.08,2.29-0.24,4.05-0.44,5.28c-0.21,1.23-0.64,2.16-1.27,2.8
			c-0.64,0.64-1.55,1.04-2.74,1.21c-1.19,0.17-2.84,0.25-4.96,0.25v2.8H425v-2.8c-2.03,0-3.69-0.04-4.96-0.13
			c-1.27-0.08-2.27-0.32-2.99-0.7c-0.72-0.38-1.21-0.95-1.46-1.72c-0.25-0.76-0.38-1.82-0.38-3.18c0-0.59,0.02-1.23,0.06-1.91
			c0.04-0.68,0.06-1.4,0.06-2.16l0.13-1.65c0.08-0.68,0.13-1.31,0.13-1.91c0-0.59,0.04-1.23,0.13-1.91l0.51-7.76
			c0.08-0.68,0.13-1.31,0.13-1.91c0-0.59,0.04-1.23,0.13-1.91l1.91-30.77c0.17-2.54,0.34-5.11,0.51-7.69
			c0.17-2.59,0.34-13.47,0.51-16.01l18.77,76.44l3.26,12.02l0.01-0.01c1.22,4.5,2.82,8.44,4.8,11.81c2.26,3.85,4.99,6.9,8.2,9.18
			l-0.1,0c0,0,0.01,0,0.01,0.01l-2.98-0.09c-2.66,0.1-3.83,0.88-4.1,1.08c-0.02,0.01-0.04,0.03-0.05,0.04c0,0-0.01,0.01-0.01,0.01
			l0,0c-0.98,0.79-1.95,1.72-1.77,2.21c0,0,0.08,1.55,4.89-0.27l0,0.01c0,0,1.96-0.94,4.87-0.95c0.73,0.02,1.58,0.08,2.53,0.23
			c0.03,0,0.05,0.01,0.08,0.01l0,0c0.18,0.03,0.36,0.06,0.55,0.09c0.25,0.05,0.53,0.11,0.82,0.18c0.88,0.34,1.77,0.61,2.69,0.83
			c0.7,0.26,1.76,0.7,2.65,1.24c0.16,0.11,0.4,0.27,0.69,0.47c0.04,0.03,0.09,0.07,0.13,0.1l-0.01-0.02
			c1.67,1.11,4.95,3.18,6.99,3.79c4.49,1.71,11.82,3.1,20.43-0.58c4.51-1.73,5.88-4.1,5.88-4.1
			C493.16,670.48,485.48,670.3,479.05,669z"/>
		<path class="st0" d="M469.81,552.75c0.89-0.38,2.82-0.61,5.78-0.7v-2.67h-12.71l-17.22,64.45l1.49,5.48l15.98-67.19l3.56,71.13
			c0,0.76,0.02,1.48,0.06,2.16c0.04,0.68,0.06,1.32,0.06,1.91c0,1.44-0.13,2.56-0.38,3.37c-0.25,0.81-0.74,1.44-1.46,1.91
			c-0.72,0.47-1.7,0.76-2.93,0.89c-1.23,0.13-2.86,0.19-4.89,0.19v2.92h24.66v-2.92c-2.12,0-3.77-0.1-4.96-0.32
			c-1.19-0.21-2.08-0.64-2.67-1.27c-0.59-0.64-0.97-1.57-1.14-2.8c-0.17-1.23-0.34-2.9-0.51-5.02l-3.94-65.22
			c-0.08-0.68-0.13-1.27-0.13-1.78c0-0.51,0-0.97,0-1.4C468.48,554.17,468.92,553.13,469.81,552.75z"/>
	</g>
</g>
</svg>
